<?xml version="1.0" encoding="UTF-8" standalone="no"?>
<!DOCTYPE svg PUBLIC "-//W3C//DTD SVG 1.1//EN"
 "http://www.w3.org/Graphics/SVG/1.1/DTD/svg11.dtd">
<!-- Generated by graphviz version 2.40.1 (20161225.0304)
 -->
<!-- Title: G Pages: 1 -->
<svg width="493pt" height="330pt"
 viewBox="0.00 0.00 493.18 330.00" xmlns="http://www.w3.org/2000/svg" xmlns:xlink="http://www.w3.org/1999/xlink">
<g id="graph0" class="graph" transform="scale(1 1) rotate(0) translate(4 326)">
<title>G</title>
<polygon fill="#ffffff" stroke="transparent" points="-4,4 -4,-326 489.1753,-326 489.1753,4 -4,4"/>
<g id="clust1" class="cluster">
<title>cluster_Global</title>
<path fill="none" stroke="#c0c0c0" d="M106.5877,-44C106.5877,-44 465.1753,-44 465.1753,-44 471.1753,-44 477.1753,-50 477.1753,-56 477.1753,-56 477.1753,-302 477.1753,-302 477.1753,-308 471.1753,-314 465.1753,-314 465.1753,-314 106.5877,-314 106.5877,-314 100.5877,-314 94.5877,-308 94.5877,-302 94.5877,-302 94.5877,-56 94.5877,-56 94.5877,-50 100.5877,-44 106.5877,-44"/>
<text text-anchor="middle" x="285.8815" y="-301.2" font-family="Times,serif" font-size="11.00" fill="#c0c0c0">Global</text>
</g>
<g id="clust2" class="cluster">
<title>cluster_\JadLog</title>
<path fill="none" stroke="#c0c0c0" d="M114.5877,-52C114.5877,-52 457.1753,-52 457.1753,-52 463.1753,-52 469.1753,-58 469.1753,-64 469.1753,-64 469.1753,-274 469.1753,-274 469.1753,-280 463.1753,-286 457.1753,-286 457.1753,-286 114.5877,-286 114.5877,-286 108.5877,-286 102.5877,-280 102.5877,-274 102.5877,-274 102.5877,-64 102.5877,-64 102.5877,-58 108.5877,-52 114.5877,-52"/>
<text text-anchor="middle" x="285.8815" y="-273.2" font-family="Times,serif" font-size="11.00" fill="#c0c0c0">JadLog</text>
</g>
<!-- \\JadLog\\JadLogProvider -->
<g id="node1" class="node">
<title>\\JadLog\\JadLogProvider</title>
<polygon fill="none" stroke="#000000" points="461.1753,-96 350.1753,-96 350.1753,-60 461.1753,-60 461.1753,-96"/>
<text text-anchor="middle" x="405.6753" y="-75.2" font-family="Courier,monospace" font-size="11.00" fill="#000000">JadLogProvider</text>
</g>
<!-- \\Illuminate\\Support\\ServiceProvider -->
<g id="node6" class="node">
<title>\\Illuminate\\Support\\ServiceProvider</title>
<ellipse fill="none" stroke="#000000" cx="139.0877" cy="-18" rx="139.1754" ry="18"/>
<text text-anchor="middle" x="139.0877" y="-14.3" font-family="Times,serif" font-size="14.00" fill="#c0c0c0">\Illuminate\Support\ServiceProvider</text>
</g>
<!-- \\JadLog\\JadLogProvider&#45;&gt;\\Illuminate\\Support\\ServiceProvider -->
<g id="edge1" class="edge">
<title>\\JadLog\\JadLogProvider&#45;&gt;\\Illuminate\\Support\\ServiceProvider</title>
<path fill="none" stroke="#000000" d="M349.8703,-64.6315C327.5904,-59.3564 301.6893,-53.3018 278.1753,-48 259.8937,-43.878 240.2325,-39.5644 221.6149,-35.5348"/>
<polygon fill="none" stroke="#000000" points="222.2055,-32.0818 211.6921,-33.3925 220.7282,-38.9241 222.2055,-32.0818"/>
</g>
<!-- \\JadLog\\Response -->
<g id="node2" class="node">
<title>\\JadLog\\Response</title>
<polygon fill="none" stroke="#000000" points="441.1753,-204 370.1753,-204 370.1753,-168 441.1753,-168 441.1753,-204"/>
<text text-anchor="middle" x="405.6753" y="-183.2" font-family="Courier,monospace" font-size="11.00" fill="#000000">Response</text>
</g>
<!-- \\JadLog\\Item -->
<g id="node3" class="node">
<title>\\JadLog\\Item</title>
<polygon fill="none" stroke="#000000" points="432.6753,-150 378.6753,-150 378.6753,-114 432.6753,-114 432.6753,-150"/>
<text text-anchor="middle" x="405.6753" y="-129.2" font-family="Courier,monospace" font-size="11.00" fill="#000000">Item</text>
</g>
<!-- \\JadLog\\JadLog -->
<g id="node4" class="node">
<title>\\JadLog\\JadLog</title>
<polygon fill="none" stroke="#000000" points="167.5877,-258 110.5877,-258 110.5877,-222 167.5877,-222 167.5877,-258"/>
<text text-anchor="middle" x="139.0877" y="-237.2" font-family="Courier,monospace" font-size="11.00" fill="#000000">JadLog</text>
</g>
<!-- \\JadLog\\Services -->
<g id="node5" class="node">
<title>\\JadLog\\Services</title>
<polygon fill="none" stroke="#000000" points="441.1753,-258 370.1753,-258 370.1753,-222 441.1753,-222 441.1753,-258"/>
<text text-anchor="middle" x="405.6753" y="-237.2" font-family="Courier,monospace" font-size="11.00" fill="#000000">Services</text>
</g>
<!-- \\JadLog\\Services&#45;&gt;\\JadLog\\JadLog -->
<g id="edge2" class="edge">
<title>\\JadLog\\Services&#45;&gt;\\JadLog\\JadLog</title>
<path fill="none" stroke="#000000" d="M369.9987,-240C319.9574,-240 229.2831,-240 177.7042,-240"/>
<polygon fill="none" stroke="#000000" points="177.6266,-236.5001 167.6266,-240 177.6266,-243.5001 177.6266,-236.5001"/>
</g>
</g>
</svg>
